<?xml version="1.0" encoding="utf-8"?>
<!-- Generator: Adobe Illustrator 18.0.0, SVG Export Plug-In . SVG Version: 6.00 Build 0)  -->
<!DOCTYPE svg PUBLIC "-//W3C//DTD SVG 1.1//EN" "http://www.w3.org/Graphics/SVG/1.1/DTD/svg11.dtd">
<svg xmlns="http://www.w3.org/2000/svg" xmlns:xlink="http://www.w3.org/1999/xlink" version="1.1" id="Слой_2" x="0px" y="0px" viewBox="-201 10 1336 1115.4" enable-background="new -201 10 1336 1115.4" xml:space="preserve">
<path fill="#000000" stroke="" stroke-width="2" stroke-miterlimit="10" d="M1084.5,151.6c-10.1-5-20.4-11.1-31.1-14.3  c-10.2-3-32.6-13.8-32.6-13.8c-8.7-5.8-10.7-20.1-14.4-28.9c-4.2-9.7-9.4-19.3-15.8-27.6c-12.9-16.3-33.1-23.5-50.1-33.1  c-18.4-10.7-44.7-16.8-66.2-13.8c-22.4,3-46.4,9.5-65.7,22c-9.5,6.2-17,9.5-24.2,18.4c-6,7.3-10.5,14.4-15.1,22  c0.7,0.1,1.3,0.1,2,0.3c-10.3,14.4-12.6,30.7-15.9,47.7c-3.4,17.4-4.6,34.3-4.5,53c0,23.5,0.3,50.6-8.6,72.1  c-4.2,10.2-7.8,17.9-18.4,22.9c-11,5.3-22.4,12.6-33.9,16.2c-21.3,6.5-41.6,15.4-62,25.3C605.5,330.9,583,343,562,355.7  c-24.5,14.6-132,73.4-132,73.4c-1.2,4.6-116.6,63.3-139.8,70.6c-23.6,7.4-46.8,17.9-70,26.6c-24.1,9-47.8,17.2-70.9,27.6  c-11.5,5.2-22.4,11.3-33.7,17.2c-9.1,4.9-16.3,11.9-26.2,15.5c-11.9,4.2-24.9,5.4-37.1,8.6c-12.5,3.3-24.5,7.2-36.7,9.4  c-24.8,4.5-49.4,9.8-74.9,11.1c-24.5,1.3-48.8,2.6-72.9,5.2c-12.2,1.2-23.7,3.6-35.2,8c-8.1,3-22.7,6.5-22.7,17.6  c15.4,6.5,35.8,3,52.9,4c9.1,0.4,46.2,1.1,55.3,2l22.8,0.8c-10.2,0.4-23.6,2.7-33.8,5.2c-8.5,2.1-23.9,6-28.8,14  c0.5,0.5,0.9,0.4,1.5,0.8c-3.8,2.5-24.2,11-22.5,18c1.7,7,25.4,6.9,30.7,7.6c22.4,2.5,46.2,5,69.2,7.2c22.4,2.1,46.9,3.8,69.2,6.1  c23.5,2.3,47.2,1.5,71.3,3c-3.2,4-8.5,6-13,8.1c-20.1,9.8-39.4,21.9-59.9,31.3c-10.7,4.9-20.5,11.5-30.6,18  c-8,5-15.4,12.6-23.6,16.8c-2,9.3,30.6-2.6,35.9-3.8c45.2-9.7,92.2-10.6,137.7-19.7h6.6c-3,0.9-6,3.2-7.9,5.7  c9.1,0.4,18.9,2.7,28.6,3c9.8,0.5,19.5-0.9,29.4-1.5c12.1-0.7,24.1-2.6,36-4.5c11.5-1.7,21.2-5.2,32.3-7.3c10.9-2.1,24-1.1,34.6,0  c11.7,1.2,23.1,3.7,34.5,4.5c-4.5,4.9-11.7,8.1-16,13.6c9.9,8.7,29.3,12.5,41.7,15c15.6,3.2,30.3,5.4,47.3,6.6  c-2.1,0.7-4.9,2-5.7,4.1c8.2,3,17.6,6,26.4,6.8c10.2,0.9,20.1-4.2,29.9-3.4c-8.7,3.6-9.1,17-2,22.7c6,4.6,18.9,0.3,25.7-0.9  c8.7-1.5,36-10.1,54.5-5.7l3.7,1.5c1.9,13.8-7.4,27.6-5.2,42c2.1,12.9,7.4,23.6,7.4,38.2c0,24.6,3.7,47.4,3.7,72.1  c0,23.6-2.3,50.3-2.3,72.9c0,5.8-3.7,8.2-2.8,13.8c0.7,4,4.8,8.1,6.6,11.8c4.9,9.8,32.1,36.4,41.9,40c9,3.2,20.1,9,28.8,3.8  c2.1,1.1,4.2,2.7,6.6,4.9c0.3-5.7-4.1-8.2-3.7-9.7c4.1-12.6,34.8-22.9,41.9-24.8c9.8-2.5,21.3-2.1,31.7-2.3c4,0,31,2.9,22.8-7.2  c4.6-0.7,8.1,1.7,10.9,4.1c-0.9-6.8-12.5-10.2-18.3-11.1c-8.2-1.3-14.6-1.2-22.3-5.6c-5.8-3.3-13.4-9.4-16.2-15.6  c-3.6-7.8-2.9-5.8,1.3-12.1c2.1,3,20.7,8.7,24,8.3c3-0.4,3.8-2,6.2,1.2c1.2,1.6,1.6,3.8,2.5,5.4c1.3-2.9,1.3-6.4-0.8-8.7  c1.1-1.2,1.6-2.5,1.7-3.7c11.8-10.6,64-2.5,74.2,0.5c7.6,2.3,19.9,10.2,27.8,6.6c0.1-1.3,0.8-1.9,0.8-3.3c3.3,1.2,6.5,4.5,8.7,7  c-0.5-8.3-4.9-12.1-12.2-15.5c-9.7-4.6-21.9-3.6-31.8-7.2c-4.4-1.6-8.2-3.4-12.6-5c-6.8-2.3-12.9-0.7-19.7-1.6  c-10.6-1.5-54.5-7.4-61.7-14c-13.4-38.6-17.8-98.8-23.6-127.3c-2-9.4-3.2-25.6-0.5-33.8c2-6.1,4.2-8.9,3.6-16.3  c-0.5-5.6-3.7-9.3-5.4-13c-4.6-9.7-1.2-24.2,0.1-34.1c6.6-6.1,25.3-6.4,34.5-8.2c12.2-2.5,68.9-19.9,95.7-36  c27.7-16.7,72.7-51.1,78.2-56c40.1-35.8,60.2-63.7,75.5-87.3c14.4-22.1,24.9-52.7,33.5-77.2c9.7-27.3,13.2-57.4,20.5-85.3  c8.3-31.7,7.2-59.6,3.8-92.2c-2.7-26.8-14.8-54.3-29.4-77.5c-6.8-10.7-11.3-24.1-15.5-36.4c-5.4-16-6-23.1,10.3-32.3  c11.3-6.5,23.1-12.2,34.5-18.4c12.9-6.9,26.9-5.7,40.4-1.1c19.2,6.8,24.8,9.4,37.4,14c14.4,5.3,33.5,7.4,45.8,6.4  C1117.4,180.8,1103.1,160.9,1084.5,151.6z M643.3,1030.1L643.3,1030.1c-8,2.3-15.1,7.3-22.7,10.6c-9.4,4.1-19.9,6-28.8,10.7  c-9.3-10.7-9.5-22.9-11.3-36c-1.7-13.9-2.5-27.4-2.4-41.7c0-10.6-5.7-74.6,2.8-88.6c4.1-6.9,3.7-12.1,3.7-17  c0-6.2-4.2-10.5-6.5-16.6c-2.5-6.9-3-34.6,9.7-45.8c5.8-5.2,9.9-8.3,17.2-10.6c7-2.3,17.1-2.9,17.1-2.9c-1.3,5,1.2,13-0.5,18.7  c-1.9,6.1-4.2,12.5-5.4,18.9c-1.2,6.2,1.5,13.1,4.1,19.2c2.4,5.3,5.3,9.7,7.8,15.1c3,6.5,4.8,36.8,6.1,44.4  c2.7,15.4,2.5,30.7,5,46.1c2.3,13.9,5.3,31.5-3.3,43.9c-2.9,4.1-6.8,8.1-7.6,12.7c-2.9,3.7-5.6,11-5.7,12.6c1.9-1.5,3.6-3.6,5.7-4.9  c0.4-0.3,0.9-0.5,1.3-0.7c3.4,6.2,8.5-0.3,12.5-4.9C642.2,1018.1,641.2,1025.9,643.3,1030.1L643.3,1030.1  C643.7,1030.1,643.7,1030.1,643.3,1030.1z"/>
</svg>
